<?xml version="1.0" standalone="no"?>
<!DOCTYPE svg PUBLIC "-//W3C//DTD SVG 1.1//EN" "http://www.w3.org/Graphics/SVG/1.1/DTD/svg11.dtd" >
<svg xmlns="http://www.w3.org/2000/svg">
<metadata>
Created by FontForge 20120731 at Tue Apr 26 16:33:53 2016
 By admin
</metadata>
<defs>
<font id="iconfont" horiz-adv-x="1024" >
  <font-face 
    font-family="iconfont"
    font-weight="500"
    font-stretch="normal"
    units-per-em="1024"
    panose-1="2 0 6 3 0 0 0 0 0 0"
    ascent="896"
    descent="-128"
    x-height="792"
    bbox="0 -128 1028 896"
    underline-thickness="50"
    underline-position="-100"
    unicode-range="U+0078-E644"
  />
<missing-glyph horiz-adv-x="374" 
d="M34 0v682h272v-682h-272zM68 34h204v614h-204v-614z" />
    <glyph glyph-name=".notdef" horiz-adv-x="374" 
d="M34 0v682h272v-682h-272zM68 34h204v614h-204v-614z" />
    <glyph glyph-name=".null" horiz-adv-x="0" 
 />
    <glyph glyph-name="nonmarkingreturn" horiz-adv-x="341" 
 />
    <glyph glyph-name="x" unicode="x" horiz-adv-x="1001" 
d="M281 543q-27 -1 -53 -1h-83q-18 0 -36.5 -6t-32.5 -18.5t-23 -32t-9 -45.5v-76h912v41q0 16 -0.5 30t-0.5 18q0 13 -5 29t-17 29.5t-31.5 22.5t-49.5 9h-133v-97h-438v97zM955 310v-52q0 -23 0.5 -52t0.5 -58t-10.5 -47.5t-26 -30t-33 -16t-31.5 -4.5q-14 -1 -29.5 -0.5
t-29.5 0.5h-32l-45 128h-439l-44 -128h-29h-34q-20 0 -45 1q-25 0 -41 9.5t-25.5 23t-13.5 29.5t-4 30v167h911zM163 247q-12 0 -21 -8.5t-9 -21.5t9 -21.5t21 -8.5q13 0 22 8.5t9 21.5t-9 21.5t-22 8.5zM316 123q-8 -26 -14 -48q-5 -19 -10.5 -37t-7.5 -25t-3 -15t1 -14.5
t9.5 -10.5t21.5 -4h37h67h81h80h64h36q23 0 34 12t2 38q-5 13 -9.5 30.5t-9.5 34.5q-5 19 -11 39h-368zM336 498v228q0 11 2.5 23t10 21.5t20.5 15.5t34 6h188q31 0 51.5 -14.5t20.5 -52.5v-227h-327z" />
    <glyph glyph-name="uniE600" unicode="&#xe600;" 
d="M623 471q36 27 57.5 68t21.5 89q0 80 -57 137.5t-138 57.5t-138 -57.5t-57 -137.5q0 -48 21.5 -89t57.5 -68q-133 -41 -189 -173q-19 -44 -19 -60v-249q18 -5 48.5 -12t116 -19.5t159.5 -12.5q75 0 163 11.5t133 21t50 11.5v249q-1 7 -5.5 19.5t-22 46t-41 62.5
t-66.5 59.5t-95 45.5zM378 628q0 54 38 92t91 38t92 -38t39 -92t-38.5 -92.5t-91.5 -38.5t-91.5 38.5t-38.5 92.5zM789 34q-143 -34 -279 -34q-60 0 -125.5 8.5t-101.5 17.5l-36 8v199q1 4 2.5 11t9.5 28t19 40t32 42t47 39.5t66 28t87 11.5q46 0 87 -11t68.5 -28.5
t50 -39.5t35.5 -42.5t22 -39t12.5 -28.5t3.5 -11v-199z" />
    <glyph glyph-name="uniE601" unicode="&#xe601;" 
d="M606 518h-70v-256h72q58 0 90.5 33t32.5 96.5t-32.5 95t-92.5 31.5zM602 304h-16v174h16q77 0 77 -87q2 -87 -77 -87zM373 518l-80 -256h51l17 66h80l17 -66h54l-80 256h-59zM372 368q18 66 29 112h1l30 -112h-60zM37 762v-768h950v768h-950zM926 88l-174 138h-79
l201 -159h-713l199 159h-78l-184 -147v601l174 -138h79l-185 147h697l-184 -147h77v-1l170 137v-590z" />
    <glyph glyph-name="uniE602" unicode="&#xe602;" 
d="M555 619h-86v-192h-213v-86h213v-192h86v192h213v86h-213v192zM512 853q-96 0 -183 -37t-149.5 -99.5t-99.5 -149.5t-37 -183t37 -183t99.5 -149.5t149.5 -99.5t183 -37t183 37t149.5 99.5t99.5 149.5t37 183t-37 183t-99.5 149.5t-149.5 99.5t-183 37zM512 0
q-158 0 -271 113t-113 271t113 271t271 113t271 -113t113 -271t-113 -271t-271 -113z" />
    <glyph glyph-name="uniE603" unicode="&#xe603;" 
d="M514 541v203q0 3 -1.5 8.5t-8 19t-15.5 24t-26.5 19t-38.5 8.5t-38 -8t-26.5 -20t-15.5 -23.5t-8 -19.5l-2 -8v-304q-3 4 -8 9.5t-20.5 17t-31 17t-36.5 1.5t-39 -23q-22 -21 -26.5 -46t3 -44.5t21 -38.5t22 -27.5t13.5 -11.5q4 -2 44.5 -68.5t82.5 -153t42 -127.5h362
q4 7 11 18.5t24.5 46t31 67t25 74.5t11.5 76v202q-2 2 -4.5 5.5t-12 13.5t-20.5 19.5t-29.5 22t-38.5 22.5t-47.5 18.5t-56.5 13t-66 4.5t-77 -7zM731 6h-280q-43 115 -97 207q-25 42 -52.5 81t-42.5 58l-15 20q-3 3 -6 8t-3.5 18t9.5 23q7 7 15 8.5t15.5 -4t10 -8t8.5 -9.5
q8 -10 27 -34t43 -60.5t27 -51.5v463v5q0 2 1.5 8t3.5 11t7 9t12 4q18 0 27.5 -9t9.5 -19v-9v-256q71 25 146 25q57 0 121 -26.5t87 -59.5v-170q-2 -3 -0.5 -10t-2.5 -29.5t-9.5 -47.5t-22 -64.5t-39.5 -80.5z" />
    <glyph glyph-name="uniE604" unicode="&#xe604;" 
d="M623 471q36 27 57.5 68t21.5 89q0 80 -57 137.5t-138 57.5t-138 -57.5t-57 -137.5q0 -48 21.5 -89t57.5 -68q-133 -41 -189 -173q-19 -44 -19 -60v-249q18 -5 48.5 -12t116 -19.5t159.5 -12.5q75 0 163 11.5t133 21t50 11.5v249q-1 7 -5.5 19.5t-22 46t-41 62.5
t-66.5 59.5t-95 45.5zM378 628q0 54 38 92t91 38t92 -38t39 -92t-38.5 -92.5t-91.5 -38.5t-91.5 38.5t-38.5 92.5zM789 34q-143 -34 -279 -34q-60 0 -125.5 8.5t-101.5 17.5l-36 8v199q1 4 2.5 11t9.5 28t19 40t32 42t47 39.5t66 28t87 11.5q46 0 87 -11t68.5 -28.5
t50 -39.5t35.5 -42.5t22 -39t12.5 -28.5t3.5 -11v-199z" />
    <glyph glyph-name="uniE605" unicode="&#xe605;" 
d="M657 614q53 0 117 -21q-37 115 -135 187.5t-221 72.5q-102 0 -188.5 -50t-136.5 -136.5t-50 -188.5q0 -123 72.5 -221t187.5 -135q-21 60 -21 117q0 102 50 188.5t136.5 136.5t188.5 50zM730 478q0 34 -7 66q-32 6 -66 6q-130 0 -222 -92t-92 -221q0 -34 7 -66
q32 -7 66 -7q131 2 222.5 93t91.5 221zM789 516q5 -25 5 -38q0 -102 -50.5 -188.5t-137 -137t-188.5 -50.5q-13 0 -38 5q35 -86 113 -139t175 -53q129 0 221 92t92 221q0 95 -53 174t-139 114z" />
    <glyph glyph-name="uniE606" unicode="&#xe606;" 
d="M512 489q-43 0 -74 -31t-31 -74t31 -74t74 -31t74 31t31 74q0 23 -9 41l218 217l-56 56l-217 -218q-26 9 -41 9zM924 610l-71 -70l3 -3q2 -2 6.5 -12t7.5 -25t6 -46t3 -70q0 -100 -49 -184t-133 -132.5t-183 -48.5t-183.5 49t-133 133t-48.5 183q0 100 49 184t133 132.5
t183 48.5q63 0 102 -6.5t46 -12.5l8 -7l70 71q-106 59 -228 59q-96 0 -183 -37t-149.5 -99.5t-99.5 -149.5t-37 -183t37 -183t99.5 -149.5t149.5 -99.5t183 -37t183 37t149.5 99.5t99.5 149.5t37 183q0 121 -57 226z" />
    <glyph glyph-name="uniE607" unicode="&#xe607;" 
d="M747 853h-86v-298h171v-555h-640v768h171v85h-256v-938h810v725zM269 311l243 -247l243 247l-60 60l-140 -141v623h-86v-623l-140 141z" />
    <glyph glyph-name="uniE608" unicode="&#xe608;" 
d="M811 599q40 38 40 93q0 54 -38 92.5t-91 38.5t-91 -37.5t-39 -91.5q41 -19 70 -52.5t41 -77.5q6 -1 19 -1q20 0 35 5q32 -5 58 -19.5t40.5 -31.5t24.5 -33.5t14 -27.5l3 -11v-126q-54 -13 -117 -19l25 -40l-4 -3q36 4 73.5 10t56.5 10l19 5v165l-4 12q-3 12 -12.5 30.5
t-24.5 38.5t-41 39.5t-57 31.5zM723 614q-31 0 -53.5 22.5t-22.5 54.5t22.5 54.5t53.5 22.5t53 -22.5t22 -54.5q1 -32 -21 -54.5t-54 -22.5zM616 366q64 52 64 134q0 70 -49.5 120t-118.5 50q-70 0 -119 -49.5t-49 -120.5q0 -82 63 -133q-39 -13 -70 -37.5t-47 -48.5
t-27 -48t-14 -36.5t-3 -14.5v-202q15 -3 40 -9t94 -16t128 -10q61 0 131 9t109 18l40 8v202l-4 14q-5 14 -17 36.5t-30 47t-50 48.5t-71 38zM399 500q0 47 33 81.5t80 34.5q48 0 80.5 -34t32.5 -82t-33 -82t-80 -34q-48 0 -80.5 33.5t-32.5 82.5zM723 16q-12 -3 -33 -7.5
t-77 -12t-102 -7.5t-95.5 7t-76.5 13t-27 7v157q1 6 3.5 16.5t16.5 37.5t33.5 47.5t58 37.5t87.5 17h1q48 0 88 -16.5t61.5 -38.5t36.5 -46.5t20 -38.5t5 -16v-157zM127 445q0 4 2 11t11 26t21.5 34.5t37 31t55.5 20.5q22 -5 34 -5q8 0 20 3q13 42 41 75t67 53
q1 53 -36.5 91t-91.5 38t-92 -38.5t-38 -92.5q0 -55 41 -93q-31 -12 -55 -32.5t-36.5 -39t-21.5 -39.5t-10 -28l-3 -13v-165q67 -19 150 -26l21 43q-18 1 -37 3.5t-32.5 5t-24.5 5t-17 3.5l-6 2v127zM290 768q31 0 53.5 -22.5t22.5 -54.5t-22.5 -54.5t-53.5 -22.5t-53 22.5
t-22 54.5t21.5 54.5t53.5 22.5z" />
    <glyph glyph-name="uniE609" unicode="&#xe609;" 
d="M73 738v-68h22v-476q0 -30 21.5 -51.5t51.5 -21.5h239l-52 -91h315l-52 91h239q30 0 51.5 21.5t21.5 51.5v476h21v68h-878zM872 212q0 -10 -7.5 -17t-17.5 -7h-670q-10 0 -17.5 7t-7.5 17v402h721v-402h-1z" />
    <glyph glyph-name="uniE60A" unicode="&#xe60a;" 
d="M597 619h-149v-470h149v470zM853 789h-149v-640h149v640zM363 512h-150v-363h150v363zM149 83v642h-106v-746h938v104h-832z" />
    <glyph glyph-name="uniE60B" unicode="&#xe60b;" 
d="M433 480v87q0 75 -53 127.5t-128 52.5q-74 0 -126.5 -52.5t-52.5 -127.5v-87q0 -75 53 -127.5t128 -52.5q74 0 126.5 52.5t52.5 127.5zM366 479q0 -47 -33 -79.5t-79 -32.5q-47 0 -80 32.5t-33 79.5v88q0 46 33 79t80 33q46 0 79 -33t33 -79v-88zM685 774l-394 -750
l60 -30l394 750zM770 456q-75 0 -127.5 -53t-52.5 -127v-87q0 -75 52.5 -127.5t127.5 -52.5t128 53t53 127v87q0 74 -53 127t-128 53zM884 189q0 -47 -33 -79.5t-79 -32.5q-47 0 -79.5 32.5t-32.5 79.5v88q0 46 32.5 79t79.5 33q46 0 79 -33t33 -79v-88z" />
    <glyph glyph-name="uniE60C" unicode="&#xe60c;" 
d="M186 241h74l325 595v13h-73l-326 -597v-11zM179 540h105q47 0 47 47v215q0 47 -47 47h-105q-47 0 -47 -47v-215q0 -47 47 -47zM196 791h69v-196h-69v196zM465 550q-47 0 -47 -47v-215q0 -47 47 -47h105q47 0 47 47v215q0 47 -47 47h-105zM553 299h-69v196h69v-196z
M636 836l-26 -104q117 -33 191 -128.5t74 -219.5q0 -99 -48.5 -182.5t-132 -132t-182.5 -48.5q-102 0 -187.5 52.5t-132.5 139.5l-94 -53q62 -111 173 -178t241 -67q96 0 183 37t149.5 99.5t99.5 149.5t37 183q0 160 -97 285t-248 167z" />
    <glyph glyph-name="uniE60D" unicode="&#xe60d;" 
d="M600 575l-87 -147l-91 146l-45 -28l80 -129h-80v-56h112v-45h-112v-56h112v-67h56v67h101v56h-101v45h101v56h-77l77 132zM512 823q-89 0 -170.5 -35t-140 -93.5t-93.5 -140t-35 -170.5t35 -170.5t93.5 -140t140 -93.5t170.5 -35t170.5 35t140 93.5t93.5 140t35 170.5
t-35 170.5t-93.5 140t-140 93.5t-170.5 35zM512 13q-101 0 -186 50t-135 135t-50 186t50 186t135 135t186 50t186 -50t135 -135t50 -186t-50 -186t-135 -135t-186 -50z" />
    <glyph glyph-name="uniE60E" unicode="&#xe60e;" 
d="M757 187q90 107 90 248q1 106 -50.5 195t-141 141t-195 52t-194.5 -52t-141 -141t-52 -194.5t52 -195t141 -141t195 -51.5q141 0 248 90l194 -193l48 48zM461 115q-87 0 -161 43t-117 116.5t-43 160.5t43 161t117 117t161 43t160.5 -43t116.5 -117t43 -161t-43 -160.5
t-116.5 -116.5t-160.5 -43zM568 366q31 24 49 60t18 76q0 72 -51 123.5t-123 51.5t-123.5 -51.5t-51.5 -123.5q0 -83 65 -135q-74 -26 -118 -85l44 -50q23 41 67.5 69t113.5 28q120 0 186 -89l44 44q-50 58 -120 82zM460.5 385q-48.5 0 -83 34.5t-34.5 83.5t34.5 84t83.5 35
q48 0 83 -34.5t35 -84t-35 -84t-83.5 -34.5z" />
    <glyph glyph-name="uniE60F" unicode="&#xe60f;" 
d="M757 187q90 107 90 248q1 106 -50.5 195t-141 141t-195 52t-194.5 -52t-141 -141t-52 -194.5t52 -195t141 -141t195 -51.5q141 0 248 90l194 -193l48 48zM461 115q-87 0 -161 43t-117 116.5t-43 160.5t43 161t117 117t161 43t160.5 -43t116.5 -117t43 -161t-43 -160.5
t-116.5 -116.5t-160.5 -43z" />
    <glyph glyph-name="uniE610" unicode="&#xe610;" 
d="M512 853q-96 0 -183 -37t-149.5 -99.5t-99.5 -149.5t-37 -183t37 -183t99.5 -149.5t149.5 -99.5t183 -37t183 37t149.5 99.5t99.5 149.5t37 183t-37 183t-99.5 149.5t-149.5 99.5t-183 37zM512 0q-158 0 -271 113t-113 271t113 271t271 113t271 -113t113 -271t-113 -271
t-271 -113zM555 640h-86v-299h299v86h-213v213z" />
    <glyph glyph-name="uniE611" unicode="&#xe611;" 
d="M981 286v92h-143q-9 67 -42 123l85 52h49l2 249h-100l-2 -171l-94 -57q-45 41 -102 64q19 32 19 70q0 46 -26 82t-68 51v-86h-94v86q-42 -15 -68 -51t-26 -82q0 -38 19 -70q-57 -22 -104 -66l-103 68l-2 175h-94l3 -252h44l92 -62q-31 -52 -40 -117h-143v-94h145
q7 -49 23 -81l-89 -60h-32v-234h93v162l77 51q46 -55 112 -87t140 -32q72 0 136 29t109 81l73 -44v-160h100v232h-34l-85 54q19 42 25 87h145v-2zM512 102q-98 0 -166.5 68.5t-68.5 166.5t68.5 166.5t166.5 68.5t166.5 -68.5t68.5 -166.5t-68.5 -166.5t-166.5 -68.5z" />
    <glyph glyph-name="uniE612" unicode="&#xe612;" 
d="M1003 802h-261l131 -260zM299 682.5q0 52.5 -38 90.5t-90.5 38t-90 -38t-37.5 -90.5t37.5 -90t90 -37.5t90.5 37.5t38 90zM213 491h-106v-320h149v-256h107v362h-150v214zM469 -85h107v576h-107v-576zM832 277h-149v-362h106v256h150v320h-107v-214zM405 597h235v256
h-235v-256z" />
    <glyph glyph-name="uniE613" unicode="&#xe613;" 
d="M448 533v171h-149zM43 853v-85l277 -326v-527l363 234v290l298 329v85h-938zM619 491v-286l-235 -162v448l-237 277h726z" />
    <glyph glyph-name="uniE614" unicode="&#xe614;" 
d="M43 -85h234v234h-234v-234zM128 64h64v-64h-64v64zM405 -85h235v234h-235v-234zM491 64h64v-64h-64v64zM192 320h277v-128h107v128h256v-128h85v192h-341v85h149v384h-405v-384h149v-85h-362v-192h85v128zM405 555v213h235v-213h-235zM747 149v-234h234v234h-234zM896 0
h-64v64h64v-64z" />
    <glyph glyph-name="uniE615" unicode="&#xe615;" 
d="M866 525q-2 -7 -6 -19t-18 -43.5t-30 -55.5t-42.5 -45.5t-54.5 -24.5q2 29 2 60.5t-3 71.5t-12.5 79.5t-24 80t-39 76.5t-55.5 66t-75.5 51.5t-97.5 30.5q-2 1 -0.5 -6.5t6 -23t10 -35.5t11 -46t10 -52.5t7.5 -57t3 -58.5q-1 -32 -11 -63t-24 -53t-28.5 -39.5
t-23.5 -26.5l-9 -8q-1 4 -2 12t-7.5 31.5t-16 46t-29.5 52.5t-45.5 54.5t-65.5 48t-88 37.5q2 -3 5.5 -9t12.5 -27.5t16 -46t12 -66t5 -86.5q-2 -17 -16 -58t-25.5 -89.5t-9.5 -91.5q3 -110 107 -191.5t255 -85.5q102 -3 181 15t128.5 48.5t81.5 75t44.5 90.5t12.5 99
q0 29 -5 69t-12.5 76t-15 67.5t-12.5 50.5zM512 0q-76 0 -134.5 14t-93 34t-56.5 49.5t-30.5 54t-9.5 55.5t1 46t5 33q2 7 14 41t20.5 71.5t6.5 70.5q2 -1 5.5 -3.5t13.5 -13.5t17 -24t13 -36.5t6 -50.5q2 -25 19 -34.5t39.5 -4.5t44 16t34.5 23q7 8 16 18.5t23.5 31
t27 42.5t24.5 52t18.5 60t6.5 66.5t-10 71.5q39 -22 65 -83t35 -123t7 -114q-3 -70 35.5 -94.5t92.5 8.5l64 43q1 -7 3 -18.5t1.5 -45t-7.5 -63.5t-28.5 -67t-55 -63.5t-94 -44.5t-139.5 -18z" />
    <glyph glyph-name="uniE616" unicode="&#xe616;" 
d="M981 333v104h-108q-13 90 -69 167l77 77l-75 74l-76 -77q-72 56 -167 69v106h-104v-108q-90 -13 -167 -69l-77 77l-74 -75l77 -76q-56 -72 -69 -167h-106v-104h108q13 -90 69 -167l-77 -77l75 -74l76 77q72 -56 167 -69v-106h104v108q90 13 167 69l77 -77l74 75l-77 76
q56 72 69 167h106zM512 124q-108 0 -184 76t-76 184t76 184t184 76q109 0 184.5 -75.5t75.5 -184.5t-75.5 -184.5t-184.5 -75.5z" />
    <glyph glyph-name="uniE617" unicode="&#xe617;" 
d="M811 277l-171 107v-85l166 -111v-2l-305 -171l-305 171v2l167 111v85l-171 -107v192l-107 -64v-277l45 -21l346 -192h51l346 192l44 21v277l-106 64v-192zM553 845h-103l-365 -226v-128l365 236v-620h103v620l364 -236v128z" />
    <glyph glyph-name="uniE618" unicode="&#xe618;" 
d="M501 399l88 -88l264 269v-132h86v277h-278v-85h133l-207 -207l-86 85l-296 -296l60 -60zM149 21v832h-106v-938h938v106h-832z" />
    <glyph glyph-name="uniE619" unicode="&#xe619;" 
d="M683 309q59 41 93.5 105.5t34.5 140.5q0 123 -88 210.5t-211 87.5t-211 -87.5t-88 -210.5q0 -76 34.5 -140.5t93.5 -105.5q-123 -48 -204 -154t-92 -240h106q17 144 115 232t246 88t246 -88t115 -232h106q-12 134 -92.5 240t-203.5 154zM512 363q-88 0 -140 52t-52 140
t52 140t140 52t140 -52t52 -140t-52 -140t-140 -52z" />
    <glyph glyph-name="uniE61A" unicode="&#xe61a;" 
d="M275 341h-232v-85h234q-7 42 -2 85zM491 597h-448v-85h320q10 14 27 27t30.5 20.5t36.5 19.5t34 18zM858 365l93 94l-74 74l-86 -85q-57 44 -125 41l-30 106l-101 -28l30 -106q-61 -36 -87 -98l-115 32l-28 -101l128 -34q0 -5 1 -14.5t11 -36.5t28 -51l-102 -103l75 -74
l111 111q43 -20 85 -17l43 -158l100 28l-43 157q42 25 66 58l122 -32l21 100l-106 28q3 30 -1 57t-9 39.5t-7 12.5zM695 179q-41 -11 -78.5 10.5t-49.5 64.5q-11 42 10.5 79.5t64.5 48.5q42 11 79.5 -10.5t48.5 -64.5q11 -41 -11 -79t-64 -49zM43 853v-83h938v83h-938z
M43 64v-85h298v40q-25 30 -36 45h-262z" />
    <glyph glyph-name="uniE61B" unicode="&#xe61b;" 
d="M909 640l-397 -390l-397 390l-51 -51l448 -440l448 440z" />
    <glyph glyph-name="uniE61C" unicode="&#xe61c;" 
d="M43 811h938v-107h-938v107zM43 448h938v-107h-938v107zM43 64h938v-107h-938v107z" />
    <glyph glyph-name="uniE61D" unicode="&#xe61d;" 
d="M768 781l-51 51l-440 -448l440 -448l51 51l-390 397z" />
    <glyph glyph-name="uniE61E" unicode="&#xe61e;" 
d="M329 832l-52 -51l391 -397l-391 -397l52 -51l439 448z" />
    <glyph glyph-name="uniE61F" unicode="&#xe61f;" 
d="M512 619l-448 -440l51 -51l397 390l397 -390l51 51z" />
    <glyph glyph-name="uniE620" unicode="&#xe620;" 
d="M683 363h-86v-86h86v86zM555 491h-86v-86h86v86zM683 491h-86v-86h86v86zM555 363h-86v-86h86v86zM811 491h-86v-86h86v86zM811 363h-86v-86h86v86zM427 235h-86v-86h86v86zM43 811v-854h938v854h-938zM896 43h-768v576h768v-576zM299 235h-86v-86h86v86zM427 363h-86
v-86h86v86zM299 363h-86v-86h86v86zM555 235h-86v-86h86v86z" />
    <glyph glyph-name="uniE621" unicode="&#xe621;" 
d="M64 832v-896h896v896h-896zM853 43h-682v682h682v-682z" />
    <glyph glyph-name="uniE622" unicode="&#xe622;" 
d="M314 506l-79 -79l224 -226v0l559 565l-79 81l-480 -489zM853 43h-682v682h537l105 107h-749v-896h896v659l-107 -109v-443z" />
    <glyph glyph-name="uniE623" unicode="&#xe623;" 
d="M64 597l437 -384l438 384h-875z" />
    <glyph glyph-name="uniE624" unicode="&#xe624;" 
d="M512 832q-122 0 -225 -60t-163 -163t-60 -225t60 -225t163 -163t225 -60t225 60t163 163t60 225t-60 225t-163 163t-225 60zM512 43q-92 0 -171 45.5t-124.5 124.5t-45.5 171t45.5 171t124.5 124.5t171 45.5t171 -45.5t124.5 -124.5t45.5 -171t-45.5 -171t-124.5 -124.5
t-171 -45.5z" />
    <glyph glyph-name="uniE625" unicode="&#xe625;" 
d="M512 587q-84 0 -143.5 -59.5t-59.5 -143.5t59.5 -143.5t143.5 -59.5q83 0 143 60t60 143q0 85 -59 144t-144 59zM512 832q-122 0 -225 -60t-163 -163t-60 -225t60 -225t163 -163t225 -60t225 60t163 163t60 225t-60 225t-163 163t-225 60zM512 43q-92 0 -171 45.5
t-124.5 124.5t-45.5 171t45.5 171t124.5 124.5t171 45.5t171 -45.5t124.5 -124.5t45.5 -171t-45.5 -171t-124.5 -124.5t-171 -45.5z" />
    <glyph glyph-name="uniE626" unicode="&#xe626;" 
d="M770 164q96 110 96 256q0 106 -52 196t-142 142.5t-196 52.5t-196 -52.5t-142.5 -142.5t-52.5 -196t52.5 -196t142.5 -142t196 -52q128 0 232 77l150 -150l59 60zM476 113q-126 0 -215.5 90.5t-89.5 216.5q0 127 89 216t216 89t217 -89.5t90 -217.5q0 -127 -90 -216
t-217 -89z" />
    <glyph glyph-name="uniE627" unicode="&#xe627;" 
d="M320 233v514h-85v-514l-130 130l-62 -62l192 -192v-2q21 -22 42 -22q10 0 20.5 5.5t16.5 10.5l6 6v2l192 192l-62 62zM789 640q-21 21 -42 21q-10 0 -20.5 -5t-16.5 -11l-6 -5v-2l-192 -194l62 -62l132 132v-514h85v516l133 -132l62 62z" />
    <glyph glyph-name="uniE628" unicode="&#xe628;" 
d="M512 597l-448 -384h896z" />
    <glyph glyph-name="uniE629" unicode="&#xe629;" 
d="M512 207q35 0 65.5 10t55.5 31.5t41 38t39 46.5t32 40q86 103 142 75q11 -6 20 -8t13 -1h4q1 2 3 5.5t4 12t-1 15.5t-15.5 12.5t-35.5 6.5q-91 2 -226 -116q-29 -24 -79 -47t-94 -23q-47 0 -88.5 30t-41.5 60q0 19 7 34t17 23t20 13.5t17 6.5l7 2q-11 1 -25.5 2
t-30.5 -5.5t-29.5 -16t-22.5 -30t-9 -46.5q0 -70 60.5 -120.5t150.5 -50.5zM668 241q-2 -2 -6 -6.5t-18.5 -15t-31 -18.5t-43.5 -15t-57 -7t-58.5 6.5t-48 15.5t-34.5 18t-22 16l-8 6l-298 -68v-30l469 -100l469 102v30z" />
    <glyph glyph-name="uniE62A" unicode="&#xe62a;" 
d="M510 503q-44 58 -110.5 91t-143.5 33v-486h32v452q61 -6 114 -37t89 -80q-49 -81 -49 -169q0 -89 47 -166h38v2h4q47 77 47 166q0 92 -47 169q36 49 88.5 80t112.5 37v-454h32v486q-77 0 -143.5 -33t-110.5 -91zM544 307q0 -76 -36 -138q-34 64 -34 136q0 76 36 139
q34 -65 34 -137zM512 896q-140 0 -257.5 -68.5t-186 -186t-68.5 -257.5t68.5 -257.5t186 -186t257.5 -68.5t257.5 68.5t186 186t68.5 257.5t-68.5 257.5t-186 186t-257.5 68.5zM512 -96q-198 0 -339 141t-141 339t141 339t339 141t339 -141t141 -339t-141 -339t-339 -141z
" />
    <glyph glyph-name="uniE62B" unicode="&#xe62b;" 
d="M399 64q-36 0 -58.5 -25.5t-22.5 -59.5q0 -35 22.5 -60.5t56.5 -25.5q35 0 58 25.5t23 60.5q2 34 -20.5 59.5t-58.5 25.5zM467 -21q0 -31 -19 -53t-49 -22q-29 0 -48.5 22t-19.5 53t19 52.5t49 21.5q29 0 48.5 -22t19.5 -52zM510 580q-34 44 -83.5 69t-106.5 25v-365h23
v340q46 -5 86 -28.5t66 -59.5q-36 -56 -36 -126q0 -68 34 -126h28v2h2q34 58 34 126q0 70 -36 126q25 37 65 60t86 28v-342h23v363q-53 0 -102 -24.5t-83 -67.5zM535 433q0 -52 -27 -104q-26 44 -26 102q0 50 26 104q27 -43 27 -102zM273 62q-6 0 -6 -4l-62 -94l-62 94
q-4 4 -6 4h-3q-6 0 -6 -7v-155q0 -7 6.5 -7t6.5 7v138l57 -87q3 -2 5 -2q4 0 4 2l58 87v-138q0 -7 6 -7t6 7v153q0 9 -4 9zM896 491q0 104 -51.5 192.5t-140 140t-192.5 51.5t-192.5 -51.5t-140 -140t-51.5 -192.5t51.5 -192.5t140 -140t192.5 -51.5t192.5 51.5t140 140
t51.5 192.5zM512 130q-98 0 -181 48.5t-131.5 131.5t-48.5 180.5t48.5 180.5t131.5 131.5t181 48.5t181 -48.5t131.5 -131.5t48.5 -180.5t-48.5 -180.5t-131.5 -131.5t-181 -48.5zM691.5 62q-6.5 0 -6.5 -7v-155q0 -7 6.5 -7t6.5 7v155q0 7 -6.5 7zM868.5 62q-6.5 0 -6.5 -7
v-91q0 -30 -14.5 -45t-38.5 -15q-54 0 -54 62v89q0 7 -6.5 7t-6.5 -7v-91q0 -34 18.5 -52.5t48.5 -18.5q29 0 47.5 19.5t18.5 53.5v89q0 7 -6.5 7zM585 -19l55 72q0 1 1 2.5t1 2.5q0 6 -4 6q-2 0 -7 -4l-51 -71l-53 71q-2 2 -4 2q-7 0 -7 -7q0 -2 2 -4l54 -70l-58 -75
q0 -1 -1 -2t-1 -2q0 -7 4 -7q2 0 7 5l55 72l56 -74q2 -3 4 -3q6 0 6 7q0 2 -2 4z" />
    <glyph glyph-name="uniE62C" unicode="&#xe62c;" 
d="M371.5 491q-48.5 0 -80 -35t-31.5 -83t30.5 -82.5t78.5 -34.5t79.5 34.5t31.5 82.5q2 48 -29 83t-79.5 35zM465 373q0 -42 -26.5 -72t-67.5 -30q-39 0 -66.5 30t-27.5 72q0 43 26.5 73t65.5 30q41 0 68.5 -30t27.5 -73zM198 489q-6 0 -10 -5l-86 -130l-85 130q-4 5 -8 5
t-6.5 -3t-2.5 -6v-213q0 -4 2.5 -6.5t6 -2.5t6 2.5t2.5 6.5v190l81 -122q4 -4 6.5 -4t6.5 4l81 122v-190q0 -4 2.5 -6.5t6 -2.5t6 2.5t2.5 6.5v213q-4 9 -11 9zM627 375l75 99q2 2 2 6q0 9 -6 9q-5 0 -9 -5l-72 -96l-73 96q-4 5 -6 5q-4 0 -6.5 -3t-2.5 -6q0 -1 1 -3t1 -3
l75 -99l-79 -104q-2 -2 -2 -6q0 -9 6 -9q4 0 9 4l74 101l75 -103q4 -4 6 -4q4 0 6.5 2.5t2.5 5.5q0 5 -2 7zM772 489q-3 0 -5.5 -3t-2.5 -6v-213q0 -4 2.5 -6.5t5.5 -2.5t6 2.5t3 6.5v213q0 3 -3 6t-6 3zM1015.5 489q-3.5 0 -6 -3t-2.5 -6v-126q0 -41 -19 -62t-54 -21
t-54.5 22t-19.5 63v124q0 3 -3 6t-6 3t-5.5 -3t-2.5 -6v-126q0 -47 24 -72.5t65 -25.5t65.5 26t24.5 74v124q1 3 -1 6t-5.5 3z" />
    <glyph glyph-name="uniE62D" unicode="&#xe62d;" 
d="M117.5 512q-30.5 0 -52.5 -22t-22 -53v-277q0 -30 22 -52.5t52.5 -22.5t52.5 22.5t22 52.5v277q0 31 -22 53t-52.5 22zM896 523h-397l88 87q24 24 26 57.5t-20 55.5q-23 22 -55 19t-58 -27l-201 -201l-11 -11l-11 -11q-2 -2 -8.5 -9t-8 -11t-5 -10t-4.5 -12t-1 -13v-309
q0 -35 25.5 -60t60.5 -25h181q70 0 120.5 50t50.5 120v128h228q35 0 60 25t25 61v8q0 37 -25 62.5t-60 25.5z" />
    <glyph glyph-name="uniE62E" unicode="&#xe62e;" 
d="M512 459q85 0 145 57t60 139t-60 140t-145 58t-145 -57t-60 -139t60 -140t145 -58zM512 444q-101 0 -194 -47t-152 -129.5t-59 -177.5v-64q0 -31 42 -61.5t77 -30.5h568q37 0 80 31t43 63v59q0 96 -59 179t-152 130.5t-194 47.5z" />
    <glyph glyph-name="uniE62F" unicode="&#xe62f;" 
d="M73 823l317 -402v-488l244 195v293l317 402h-878zM573 445v-293l-122 -97v390l-244 305h610zM305 701l170 -207l49 48l-146 159h-73z" />
    <glyph glyph-name="uniE630" unicode="&#xe630;" 
d="M510 503q-44 58 -110.5 91t-143.5 33v-486h32v452q61 -6 114 -37t89 -80q-49 -81 -49 -169q0 -89 47 -166h38v2h4q47 77 47 166q0 92 -47 169q36 49 88.5 80t112.5 37v-454h32v486q-77 0 -143.5 -33t-110.5 -91zM544 307q0 -76 -36 -138q-34 64 -34 136q0 76 36 139
q34 -65 34 -137zM512 896q-140 0 -257.5 -68.5t-186 -186t-68.5 -257.5t68.5 -257.5t186 -186t257.5 -68.5t257.5 68.5t186 186t68.5 257.5t-68.5 257.5t-186 186t-257.5 68.5zM512 -96q-198 0 -339 141t-141 339t141 339t339 141t339 -141t141 -339t-141 -339t-339 -141z
" />
    <glyph glyph-name="uniE631" unicode="&#xe631;" 
d="M934 685l-121 121l-301 -300l-301 300l-121 -121l300 -301l-300 -301l121 -121l301 300l301 -300l121 121l-300 301z" />
    <glyph glyph-name="uniE632" unicode="&#xe632;" 
d="M512 819q-117 0 -217 -57.5t-159 -158t-59 -219.5q0 -117 57.5 -217t158 -159t219.5 -59q117 0 217 57.5t159 158t59 219.5q0 87 -35 167.5t-93.5 139t-139 93.5t-167.5 35zM698 262q14 -14 14 -31.5t-14.5 -32t-32 -14.5t-31.5 14l-122 122l-122 -122q-14 -14 -31.5 -14
t-32 14.5t-14.5 32t14 31.5l122 122l-122 122q-14 14 -14 31.5t14.5 32t32 14.5t31.5 -14l122 -122l122 122q14 14 31.5 14t32 -14.5t14.5 -32t-14 -31.5l-122 -122z" />
    <glyph glyph-name="uniE633" unicode="&#xe633;" 
d="M512 819q-117 0 -217 -57.5t-159 -158t-59 -219.5q0 -120 57.5 -220t157.5 -157.5t220 -57.5q117 0 217 57.5t159 158t59 219.5q0 120 -57.5 220t-157.5 157.5t-220 57.5zM710 262q15 -14 15 -39t-15 -44q-14 -14 -39 -14t-44 14l-115 128l-122 -121q-14 -15 -39 -15
t-44 15q-14 14 -14 39t14 44l128 115l-121 122q-15 14 -15 39t15 44q14 14 39 14t44 -14l115 -122l122 122q14 14 39 14t44 -14q14 -15 14 -39.5t-14 -43.5l-122 -122z" />
    <glyph glyph-name="uniE634" unicode="&#xe634;" 
d="M429 -38q64 -12 127.5 -6t117 28t101.5 57.5t81.5 82t56.5 101.5t27.5 116.5t-6.5 125.5q-24 130 -116.5 222.5t-222.5 116.5q-73 14 -145.5 3.5t-132 -42t-109.5 -79.5t-79.5 -109.5t-42 -132t3.5 -145.5q24 -130 116.5 -222.5t222.5 -116.5zM512 723q28 0 46 -19.5
t18 -44.5q0 -24 -20 -44t-44 -20t-44 20t-20 44t20 44t44 20zM448 480q0 14 9 23t23 9h58q38 0 38 -32v-378q0 -38 -32 -38h-64q-14 0 -23 9t-9 23v384z" />
    <glyph glyph-name="uniE635" unicode="&#xe635;" 
d="M512.5 813q-116.5 0 -215.5 -57.5t-156.5 -156.5t-57.5 -215.5t57.5 -216.5t156.5 -159t215 -59q117 0 217 57.5t159 158t59 219.5q0 116 -59 215t-159 156.5t-216.5 57.5zM512 32q-144 0 -248 104t-104 248t104 248t248 104t248 -104t104 -248t-104 -248t-248 -104z
M512 653q-88 0 -154 -77l45 -45q25 25 50 38t53 13q40 0 58 -12.5t18 -44.5q0 -23 -20.5 -52.5t-44 -52.5t-40 -50.5t-10.5 -49.5h71q-4 18 7 36.5t30 36.5t38 37.5t32.5 46t13.5 54.5q0 61 -39 91.5t-108 30.5zM499 237q-29 0 -46.5 -17.5t-17.5 -46.5t17.5 -46.5
t46.5 -17.5t46.5 17.5t17.5 46.5t-17.5 46.5t-46.5 17.5z" />
    <glyph glyph-name="uniE636" unicode="&#xe636;" 
d="M509 -43q-170 0 -279.5 94t-109.5 238q0 46 19 101.5t32 79t21 36.5q10 15 30 13t26 -19q22 -68 43 -97q24 -34 52 -51q-27 103 -6 198q12 59 41 107t58 74t63.5 46t49 25t23.5 8q17 4 29.5 -6.5t8.5 -24.5l-2 -17q-2 -11 -4 -43t0 -62.5t12 -72t28 -76.5q8 -15 23 -37
q4 30 13 55q6 21 17.5 39t22 28t22.5 18.5t17 11t8 3.5q17 7 31 -3t11 -26q0 -3 -0.5 -7t0.5 -16.5t4.5 -26t12.5 -33.5t22 -40q33 -48 44.5 -86.5t11.5 -98.5q0 -144 -112 -238t-283 -94zM211 422q-34 -77 -34 -134q0 -122 93 -201.5t238 -79.5q148 0 243.5 79.5
t95.5 201.5q0 53 -9.5 85.5t-38.5 74.5q-32 48 -43 98q-11 -15 -16 -32q-8 -26 -11.5 -58t-3 -48t0.5 -20q1 -20 -20 -27q-22 -7 -35 10q-57 72 -81 116q-56 109 -44 257q-21 -11 -41.5 -26.5t-43 -39t-40.5 -59t-27 -76.5q-6 -32 -6 -68t4 -63t10.5 -51t10.5 -35t5 -14
q6 -15 -6 -27t-30 -9q-4 1 -11.5 3t-25 10t-34.5 18t-37.5 28t-36.5 40q-13 18 -26 47z" />
    <glyph glyph-name="uniE637" unicode="&#xe637;" 
d="M920 809h-765q-14 0 -24 -10t-10 -24.5t10 -24t24 -9.5h731q28 0 48 -20t20 -48v-578q0 -28 -20 -48t-48 -20h-748q-28 0 -48 20t-20 48v578q0 14 -10 24t-24 10t-24 -10t-10 -24v-612q0 -42 30 -72t72 -30h816q42 0 72 30t30 72v646q0 42 -30 72t-72 30zM157.5 150
q9.5 0 16 6.5t6.5 15.5v312l133 -312q9 -22 22 -22q9 0 15.5 6.5t6.5 15.5v424q0 9 -6.5 15.5t-15.5 6.5t-15.5 -6.5t-6.5 -15.5v-312l-133 312q-4 8 -6 11.5t-6.5 7t-9.5 3.5q-10 0 -16.5 -6.5t-6.5 -15.5v-424q0 -9 6.5 -15.5t16 -6.5zM578 575q10 0 16.5 6.5t6.5 15
t-6.5 15t-16.5 6.5h-155q-9 0 -15.5 -6.5t-6.5 -15.5v-424q0 -9 6.5 -15.5t15.5 -6.5h155q10 0 16.5 6.5t6.5 15t-6.5 15t-16.5 6.5h-132v170h132q10 0 16.5 6t6.5 15t-6.5 15t-16.5 6h-132v170h132zM667 618q-9 0 -15.5 -6.5t-6.5 -15.5v-424q0 -9 6.5 -15t15.5 -6
q8 0 12.5 5t9.5 16l77 171l78 -171q4 -8 6 -11t6.5 -6.5t10.5 -3.5q9 0 15.5 6t6.5 15v424q0 9 -6.5 15t-16 6t-16 -6t-6.5 -15v-317l-57 128q-4 8 -12.5 11.5t-16.5 -0.5q-7 -2 -11 -9l-58 -129v316q0 9 -6.5 15.5t-15.5 6.5z" />
    <glyph glyph-name="uniE638" unicode="&#xe638;" horiz-adv-x="1029" 
d="M633 -46q-107 0 -198 53.5t-144 145.5t-53 201t53 201.5t144 146t198 53.5t198.5 -53.5t144 -146t52.5 -201.5t-52.5 -201t-144 -145.5t-198.5 -53.5zM633 708q-95 0 -175 -47.5t-127 -129t-47 -177.5t47 -177.5t127 -128.5t175 -47t175.5 47t127 128.5t46.5 177.5
t-46.5 177.5t-127 129t-175.5 47.5zM631 378h1h1h1h1h1q32 2 67 -25q46 -35 46 -93q0 -42 -26.5 -74.5t-66.5 -40.5v-50h-46v50q-34 7 -59 32t-32 60h49q7 -21 25 -34.5t40 -13.5q29 0 49.5 21t20.5 50t-20.5 50t-49.5 21h-1q-38 0 -68 23q-47 36 -47 94q0 43 26.5 75.5
t66.5 40.5v50h46v-50q34 -7 59 -32t32 -60h-48q-8 21 -26 34t-40 13q-29 0 -49.5 -20.5t-20.5 -50.5q0 -28 20 -49t48 -21zM287 635h-256q-11 0 -18.5 7.5t-7.5 18.5v17q0 11 7.5 18.5t18.5 7.5h256q10 0 17.5 -7.5t7.5 -18.5v-17q0 -11 -7.5 -18.5t-17.5 -7.5zM31 482h153
q11 0 18.5 -7.5t7.5 -18.5v-17q0 -10 -7.5 -17.5t-18.5 -7.5h-153q-11 0 -18.5 7.5t-7.5 17.5v17q0 11 7.5 18.5t18.5 7.5zM31 277h153q11 0 18.5 -7.5t7.5 -17.5v-17q0 -11 -7.5 -18.5t-18.5 -7.5h-153q-11 0 -18.5 7.5t-7.5 18.5v17q0 10 7.5 17.5t18.5 7.5zM31 73h256
q10 0 17.5 -7.5t7.5 -18.5v-17q0 -10 -7.5 -17.5t-17.5 -7.5h-256q-11 0 -18.5 7.5t-7.5 17.5v17q0 11 7.5 18.5t18.5 7.5z" />
    <glyph glyph-name="uniE639" unicode="&#xe639;" 
d="M912 653q-5 10 -15.5 13.5t-20.5 -1.5l-6 -4q-2 -1 -3 -3l-138 -138l-64 64l138 138q3 3 5 6q0 1 1 3q5 10 2 20.5t-13 15.5q-58 31 -124 31q-112 0 -191 -79t-79 -191q0 -38 11 -74l-141 -141h-2h-2q-78 0 -133.5 -55t-55.5 -133t55.5 -133t133.5 -55t133 55t55 133v5
l141 140q36 -11 74 -11q112 0 191 79t79 191q0 66 -31 124zM419 163l-18 -5q6 -20 6 -36q0 -57 -41 -98t-98.5 -41t-98.5 41t-41 98.5t40.5 98.5t98.5 41q16 0 36 -6l5 18l128 128q39 -72 111 -112zM674 306q-92 0 -157.5 65.5t-65.5 157.5t65.5 157t157.5 65q34 0 67 -11
l-135 -135q-8 -8 -8 -19.5t8 -19.5l105 -105q8 -8 19.5 -8t19.5 8l135 135q11 -33 11 -67q0 -92 -65.5 -157.5t-157.5 -65.5h1zM270 206q-34 0 -57.5 -24t-23.5 -57.5t23.5 -57t57 -23.5t57 23.5t23.5 57t-23.5 57.5t-56.5 24zM270 88q-15 0 -26 11t-11 26t11 25.5t26 10.5
t25.5 -10.5t10.5 -25.5t-10.5 -26t-25.5 -11z" />
    <glyph glyph-name="uniE63A" unicode="&#xe63a;" 
d="M837 -52h-640q-10 0 -17 7.5t-6 17.5l50 607q2 25 25 25h535q8 0 16 -8t9 -17l51 -606q1 -11 -7 -18q-6 -8 -16 -8zM250 -1h559l-51 556h-483l-51 -556h26zM707 630h-51q0 37 -13.5 64t-35.5 39.5t-41 18t-37 5.5t-40.5 -5.5t-49.5 -18t-44.5 -39.5t-17.5 -64h-51
q0 45 19.5 81t49.5 56t62.5 30t62.5 10t61.5 -10t60.5 -30t47 -56t18 -81zM334 460.5q0 20.5 14.5 34.5t35 14t35 -14t14.5 -34.5t-14.5 -34.5t-35 -14t-35 14t-14.5 34.5zM603 460.5q0 20.5 14.5 34.5t35 14t35 -14t14.5 -34.5t-14.5 -34.5t-35 -14t-35 14t-14.5 34.5z" />
    <glyph glyph-name="uniE63B" unicode="&#xe63b;" 
d="M876 -42h-746q-28 0 -48 20.5t-20 50.5v594q0 32 24 52q23 18 60 18h44l5 32q1 29 29 50q24 18 51 18h261q26 0 52 -17q31 -21 32 -51l5 -32h268q19 0 35 -24q15 -21 15 -46v-594q0 -30 -19.5 -50.5t-47.5 -20.5zM146 639q-19 0 -27 -7q-5 -4 -5 -9v-594q0 -7 4.5 -12
t11.5 -5h746q7 0 11.5 5t4.5 12v594q0 8 -7 16h-305l-12 81v2q-2 5 -11 10q-11 7 -21 7h-261q-10 0 -20 -7q-8 -6 -8 -10v-2v-2l-12 -79h-89zM399 118q-88 0 -150 65.5t-62 157.5t62 157t150 65t150.5 -65t62.5 -157t-62.5 -157.5t-150.5 -65.5zM399.5 509
q-66.5 0 -113.5 -49.5t-47 -119t47 -118.5t113.5 -49t113.5 49t47 118.5t-47 119t-113.5 49.5zM793 478h-124q-11 0 -18.5 8t-7.5 19.5t7.5 19.5t18.5 8h124q11 0 18.5 -8t7.5 -19.5t-7.5 -19.5t-18.5 -8z" />
    <glyph glyph-name="uniE63C" unicode="&#xe63c;" 
d="M784 394q45 32 70.5 80.5t25.5 102.5q0 93 -65.5 159.5t-156.5 66.5q-52 0 -97.5 -23t-76.5 -63q-26 7 -52 7q-84 0 -143.5 -60.5t-59.5 -145.5q0 -49 20.5 -92t56.5 -71q-63 -32 -101 -92.5t-38 -131.5v-150q0 -10 7.5 -17.5t17.5 -7.5h712q11 0 18 7.5t7 17.5v166
q0 81 -39 147t-106 100zM217 131q0 67 43 122t110 73q17 4 18.5 22.5t-15.5 24.5q-43 18 -69 57.5t-26 87.5q0 65 45 110.5t109 45.5q12 0 24 -2q-21 -45 -21 -95q0 -55 23 -103t64 -79q-71 -35 -113.5 -102t-42.5 -146v-141h-149v125zM880 6h-464v141q0 76 48.5 137.5
t123.5 81.5q17 4 18.5 22t-15.5 25q-49 19 -77.5 63.5t-28.5 100.5q0 72 50.5 123.5t122.5 51.5q71 0 121.5 -51.5t50.5 -123.5q0 -53 -31.5 -98t-82.5 -66q-17 -6 -16 -24.5t19 -22.5q72 -19 116.5 -79.5t44.5 -139.5v-141z" />
    <glyph glyph-name="uniE63D" unicode="&#xe63d;" 
d="M533.5 640q-93.5 0 -159.5 -68t-66 -164q0 -80 48 -142q36 -47 65 -98v-136q0 -10 6.5 -16.5t16.5 -6.5h25q1 -24 18 -40.5t40 -16.5h13q24 0 40.5 16.5t17.5 40.5h26q9 0 15.5 7t6.5 16v136q30 52 65 98q49 62 49 142q0 96 -66.5 164t-160 68zM601 55h-135v33h135v-33z
M601 123h-135v34h135v-34zM676 294q-34 -44 -62 -91h-64v135l100 102q5 5 5 12t-5 12t-12 5t-12 -5l-92 -95l-93 95q-5 5 -11.5 5t-11.5 -5t-5 -12t5 -12l99 -102v-135h-64q-28 47 -62 91q-39 50 -39 114q0 77 53.5 131.5t128.5 54.5t128 -54.5t53 -131.5q0 -64 -39 -114z
M533.5 680q12.5 0 21.5 9t9 23v73q0 13 -9 22.5t-21.5 9.5t-21.5 -9.5t-9 -22.5v-73q0 -14 9 -23t21.5 -9zM332 634q9 -13 25 -13q9 0 18 6q10 8 12 21t-5 23l-43 59q-7 11 -19.5 13t-23 -5.5t-12.5 -20.5t6 -24zM257 528l-69 23q-12 4 -23 -2t-15 -18.5t1.5 -24t17.5 -15.5
l69 -23q5 -2 9 -2q22 0 29 22q4 13 -1.5 24.5t-17.5 15.5zM898 315l-68 22q-12 4 -23.5 -2t-15.5 -18t2 -24t18 -16l68 -22q5 -2 9 -2q23 0 30 22q4 12 -2 24t-18 16zM238 337l-69 -22q-12 -4 -17.5 -16t-1.5 -24q6 -22 29 -22q5 0 9 2l68 22q13 4 18.5 16t1.5 24t-15 18
t-23 2zM820 466q5 0 10 2l68 23q12 4 18 15.5t2 24t-15.5 18.5t-23.5 2l-68 -23q-12 -4 -18 -15.5t-2 -24.5q7 -21 29 -22zM728 730l-42 -59q-8 -10 -6 -23t13 -21q8 -6 18 -6q15 0 25 13l42 59q7 11 5 24t-12 20.5t-23 5.5t-20 -13z" />
    <glyph glyph-name="uniE63E" unicode="&#xe63e;" 
d="M514 472q39 0 67 27.5t28 66.5t-28 66.5t-67 27.5t-66.5 -27.5t-27.5 -66.5t27.5 -66.5t66.5 -27.5zM514.5 616q20.5 0 35 -15t14.5 -35t-14.5 -35t-35 -15t-35 15t-14.5 35.5t14.5 35t35 14.5zM608 171.5q0 38.5 -27.5 66.5t-66.5 28t-66.5 -28t-27.5 -67t27.5 -66.5
t66.5 -27.5t66.5 28t27.5 66.5zM465 171.5q0 20.5 14.5 35t35 14.5t35 -14.5t14.5 -35t-14.5 -35t-35 -14.5t-35 14.5t-14.5 35zM711 276q39 0 67 28t28 67t-28 66.5t-67 27.5t-66.5 -27.5t-27.5 -66.5t27.5 -67t66.5 -28zM711.5 420q20.5 0 35 -14.5t14.5 -35t-14.5 -35
t-35 -14.5t-35 14.5t-14.5 35t14.5 35t35 14.5zM317 461q-39 0 -67 -27.5t-28 -66.5t28 -66.5t67 -27.5t66.5 27.5t27.5 66.5t-27.5 66.5t-66.5 27.5zM316.5 317q-20.5 0 -35 14.5t-14.5 35t14.5 35t35 14.5t35 -14.5t14.5 -35t-14.5 -35t-35 -14.5zM897 1h-195
q58 30 104 76q58 57 89 131q32 77 32 161t-32 161q-31 74 -88.5 131t-131.5 89q-77 32 -161 32t-160 -32q-75 -32 -132 -89t-88 -131q-33 -77 -33 -161t33 -161q31 -74 88 -131t132 -88q76 -33 160 -33h7h1h375q10 0 16.5 6.5t6.5 16t-7 16t-16 6.5zM254 109q-51 51 -79 117
q-29 68 -29 143t29 144q28 65 79 117q51 51 117 79q68 29 143 29t144 -29q65 -28 117 -79q51 -51 79 -117q29 -69 29 -144t-29 -143q-28 -66 -79 -117t-117 -79q-69 -29 -144 -29t-143 29q-66 28 -117 79z" />
    <glyph glyph-name="uniE63F" unicode="&#xe63f;" 
d="M125 361v-392h391v392h-391zM208 53v224h224v-224h-224zM569 805v-391h392v391h-392zM653 498v223h224v-223h-224zM125 805v-391h391v391h-391zM208 498v223h224v-223h-224zM569 361v-392h392v392h-392zM653 53v224h224v-224h-224z" />
    <glyph glyph-name="uniE640" unicode="&#xe640;" 
d="M500 679l-381 128q-18 0 -30 -13t-12 -32v-652q0 -19 10 -29t32 -16l381 -128q18 0 30.5 13t12.5 32v652q0 19 -12.5 32t-30.5 13zM480 66q0 -21 -8.5 -28t-35.5 -2l-253 92q-17 5 -26 8.5t-13 10t-4.5 11t-0.5 17.5v509q0 42 44 30l253 -99q25 -5 34.5 -15.5t9.5 -30.5
v-503zM481 634v-653q0 -18 12.5 -31.5t30.5 -13.5l381 128q21 9 31.5 18.5t10.5 26.5v653q0 19 -12 32t-30 13l-381 -128q-18 0 -30.5 -13t-12.5 -32zM544 569q0 21 7 29.5t37 16.5l253 99q44 12 44 -30v-509q0 -21 -7 -29t-37 -18l-253 -92q-27 -5 -35.5 2t-8.5 28v503z
" />
    <glyph glyph-name="uniE641" unicode="&#xe641;" 
d="M92 156l18 -13l65 87l-17 13zM293 334l7 -20l65 21l-6 21zM489 399l7 -20l65 21l-7 21zM662 379l43 -21l10 19l-43 22zM833 375l15 -15l88 86l-16 16zM918 646l21 -65l21 7l-22 65zM66.5 129q-22.5 3 -40.5 -11t-21 -36.5t11 -40.5t37 -21t40.5 11t20.5 36.5t-11 40.5
t-36.5 21zM228.5 348q-22.5 3 -40.5 -11t-21 -36.5t11 -40.5t36.5 -21t40.5 11t21 36.5t-11 40.5t-36.5 21zM437.5 421.5q-22.5 2.5 -40.5 -11.5t-20.5 -36.5t11.5 -40.5t36.5 -20.5t40.5 11.5t20.5 36.5t-11.5 40.5t-36.5 20.5zM675 427q2 19 -9.5 34t-30.5 17.5t-34 -9.5
t-17 -30.5t9.5 -33.5t30.5 -17.5t34 9t17 30.5zM777.5 370.5q-22.5 2.5 -40.5 -11t-21 -36.5t11 -40.5t36.5 -20.5t40.5 11t21 36.5t-11 40.5t-36.5 20.5zM983 562q-19 2 -34 -9.5t-17 -30.5t9.5 -34t30.5 -17t33.5 9.5t17 30.5t-9 34t-30.5 17zM873.5 647.5
q26.5 -3.5 47.5 13t24 43t-13 47t-42.5 24t-47.5 -13t-24 -42.5t13 -47t42.5 -24.5z" />
    <glyph glyph-name="uniE642" unicode="&#xe642;" 
d="M918 752l-2 18l-18 3q-25 5 -65 5q-98 0 -175 -35q-72 -33 -126 -153q-8 -18 -15 -37q-11 36 -28 66q-32 57 -84 91q-101 66 -217 66q-41 0 -65 -6l-16 -4l-2 -17q-5 -45 6 -105q9 -52 29 -94q26 -53 68 -88q60 -51 126 -74q52 -18 105 -18q28 0 55 5v-63h-238v-288
q0 -33 24 -56.5t58 -23.5h373q34 0 58 23.5t24 56.5v288h-250v134q50 -8 93 -8q142 0 216 82q23 26 38.5 59.5t21 60.5t7 55.5t1 39t-1.5 17.5zM744 25q0 -14 -9.5 -23.5t-23.5 -9.5h-373q-13 0 -22.5 9.5t-9.5 23.5v238h438v-238zM439 418q-104 0 -199 81q-34 28 -55 72
q-17 35 -26 80q-6 38 -6 75q16 2 35 2q101 0 190 -58q41 -27 67 -73q22 -38 32 -87q9 -43 9 -87q-22 -5 -47 -5zM815 552q-60 -66 -179 -66q-41 0 -88 8q13 41 29 77q46 103 102 128q66 30 154 30q18 0 38 -1q2 -111 -56 -176z" />
    <glyph glyph-name="uniE643" unicode="&#xe643;" 
d="M904 -71h-16q-14 0 -23.5 9.5t-9.5 22.5v786q0 13 9.5 22.5t23.5 9.5h16q13 0 23 -9.5t10 -22.5v-786q0 -13 -10 -22.5t-23 -9.5zM658 -71h-16q-13 0 -23 9.5t-10 22.5v540q0 14 10 23.5t23 9.5h16q14 0 23.5 -9.5t9.5 -23.5v-540q0 -13 -9.5 -22.5t-23.5 -9.5zM397 -71
h-17q-13 0 -22.5 9.5t-9.5 22.5v687q0 14 9.5 23.5t22.5 9.5h17q13 0 22.5 -9.5t9.5 -23.5v-687q0 -13 -9.5 -22.5t-22.5 -9.5zM135 -71h-17q-13 0 -22.5 9.5t-9.5 22.5v393q0 14 9.5 23.5t22.5 9.5h17q13 0 23 -9.5t10 -23.5v-393q0 -13 -10 -22.5t-23 -9.5z" />
    <glyph glyph-name="uniE644" unicode="&#xe644;" 
d="M922 525q-6 10 -17.5 12.5t-21.5 -6.5l-320 -320q-19 -19 -41.5 -19t-41.5 19l-166 167q-20 19 -20 41.5t19.5 41.5t42 19t41.5 -19l128 -128l307 307q19 19 0 38q-74 80 -176 116.5t-214 18.5q-130 -19 -229 -114.5t-123 -224.5q-12 -65 -6 -128.5t28 -118t57.5 -102.5
t82 -82.5t101.5 -58.5t116.5 -28.5t125.5 6.5q125 24 218 113t121 213q29 123 -12 237z" />
  </font>
</defs>
</svg>
